<?xml version="1.0" encoding="UTF-8" standalone="no"?>
<svg
   xmlns:dc="http://purl.org/dc/elements/1.1/"
   xmlns:cc="http://creativecommons.org/ns#"
   xmlns:rdf="http://www.w3.org/1999/02/22-rdf-syntax-ns#"
   xmlns:svg="http://www.w3.org/2000/svg"
   xmlns="http://www.w3.org/2000/svg"
   xmlns:sodipodi="http://sodipodi.sourceforge.net/DTD/sodipodi-0.dtd"
   xmlns:inkscape="http://www.inkscape.org/namespaces/inkscape"
   viewBox="0 0 1440 720"
   height="720"
   width="1440"
   xml:space="preserve"
   id="svg2"
   version="1.1"
   sodipodi:docname="abaraska_beltz.svg"
   inkscape:version="0.92.2 (5c3e80d, 2017-08-06)"><sodipodi:namedview
     pagecolor="#ffffff"
     bordercolor="#666666"
     borderopacity="1"
     objecttolerance="10"
     gridtolerance="10"
     guidetolerance="10"
     inkscape:pageopacity="0"
     inkscape:pageshadow="2"
     inkscape:window-width="1659"
     inkscape:window-height="880"
     id="namedview1071"
     showgrid="false"
     inkscape:zoom="0.65555556"
     inkscape:cx="446.93985"
     inkscape:cy="252.20999"
     inkscape:window-x="2884"
     inkscape:window-y="235"
     inkscape:window-maximized="0"
     inkscape:current-layer="text1412" /><metadata
     id="metadata8"><rdf:RDF><cc:Work
         rdf:about=""><dc:format>image/svg+xml</dc:format><dc:type
           rdf:resource="http://purl.org/dc/dcmitype/StillImage" /><dc:title /></cc:Work></rdf:RDF></metadata><defs
     id="defs6"><clipPath
       id="clipPath18"
       clipPathUnits="userSpaceOnUse"><path
         id="path16"
         d="m 677.836,573.442 v -5.575 l 10.461,5.575 z"
         inkscape:connector-curvature="0" /></clipPath><clipPath
       id="clipPath78"
       clipPathUnits="userSpaceOnUse"><path
         id="path76"
         d="m 595.15,573.442 v -49.648 l 82.686,44.073 v 5.575 z"
         inkscape:connector-curvature="0" /></clipPath><clipPath
       id="clipPath154"
       clipPathUnits="userSpaceOnUse"><path
         id="path152"
         d="m 546.448,573.442 v -59.834 h 29.593 l 19.109,10.186 v 49.648 z"
         inkscape:connector-curvature="0" /></clipPath><clipPath
       id="clipPath282"
       clipPathUnits="userSpaceOnUse"><path
         id="path280"
         d="m 546.448,513.608 v -15.773 l 29.593,15.773 z"
         inkscape:connector-curvature="0" /></clipPath><clipPath
       id="clipPath402"
       clipPathUnits="userSpaceOnUse"><path
         id="path400"
         d="m 513.925,897.152 v -71.389 h 23.771 v 85.362 z"
         inkscape:connector-curvature="0" /></clipPath><clipPath
       id="clipPath466"
       clipPathUnits="userSpaceOnUse"><path
         id="path464"
         d="m 431.24,848.547 v -22.784 h 82.685 v 71.389 z"
         inkscape:connector-curvature="0" /></clipPath><clipPath
       id="clipPath542"
       clipPathUnits="userSpaceOnUse"><path
         id="path540"
         d="m 392.481,825.763 h 38.759 v 22.784 z"
         inkscape:connector-curvature="0" /></clipPath><clipPath
       id="clipPath610"
       clipPathUnits="userSpaceOnUse"><path
         id="path608"
         d="m 679.295,761.668 h 7.677 l -7.677,7.899 z"
         inkscape:connector-curvature="0" /></clipPath><clipPath
       id="clipPath722"
       clipPathUnits="userSpaceOnUse"><path
         id="path720"
         d="m 679.295,761.668 v -13.206 h 20.512 l -12.835,13.206 z"
         inkscape:connector-curvature="0" /></clipPath><clipPath
       id="clipPath842"
       clipPathUnits="userSpaceOnUse"><path
         id="path840"
         d="m 596.609,761.668 h 82.686 v 7.899 l -82.686,85.075 z"
         inkscape:connector-curvature="0" /></clipPath><clipPath
       id="clipPath986"
       clipPathUnits="userSpaceOnUse"><path
         id="path984"
         d="m 596.609,748.462 h 82.686 v 13.206 h -82.686 z"
         inkscape:connector-curvature="0" /></clipPath><clipPath
       id="clipPath1130"
       clipPathUnits="userSpaceOnUse"><path
         id="path1128"
         d="m 546.448,761.668 h 50.161 v 92.974 l -50.161,51.61 z"
         inkscape:connector-curvature="0" /></clipPath><clipPath
       id="clipPath1266"
       clipPathUnits="userSpaceOnUse"><path
         id="path1264"
         d="m 546.448,748.462 h 50.161 v 13.206 h -50.161 z"
         inkscape:connector-curvature="0" /></clipPath><clipPath
       id="clipPath1420"
       clipPathUnits="userSpaceOnUse"><path
         id="path1418"
         d="M 0,1080 H 1080 V 0 H 0 Z"
         inkscape:connector-curvature="0" /></clipPath><clipPath
       id="clipPath1460"
       clipPathUnits="userSpaceOnUse"><path
         id="path1458"
         d="M 524.859,739.712 V 598.533 l 11.574,-11.094 1.263,0.045 v 152.228 z"
         inkscape:connector-curvature="0" /></clipPath><clipPath
       id="clipPath1672"
       clipPathUnits="userSpaceOnUse"><path
         id="path1670"
         d="m 442.174,739.712 v -61.919 l 82.685,-79.26 v 141.179 z"
         inkscape:connector-curvature="0" /></clipPath><clipPath
       id="clipPath1884"
       clipPathUnits="userSpaceOnUse"><path
         id="path1882"
         d="m 377.578,739.712 64.596,-61.919 v 61.919 z"
         inkscape:connector-curvature="0" /></clipPath><clipPath
       id="clipPath2096"
       clipPathUnits="userSpaceOnUse"><path
         id="path2094"
         d="M 0,1080 H 1080 V 0 H 0 Z"
         inkscape:connector-curvature="0" /></clipPath></defs><g
     transform="matrix(1.3333333,0,0,-1.3333333,0,720)"
     id="g10"><g
       aria-label="[etxebizitza kooperatiboa]"
       transform="scale(1,-1)"
       style="font-variant:normal;font-weight:500;font-stretch:normal;font-size:84.71728516px;font-family:AlexandriaFLF;-inkscape-font-specification:AlexandriaFLF;writing-mode:lr-tb;fill:#1d1d1b;fill-opacity:1;fill-rule:nonzero;stroke:none;stroke-width:1.81515527"
       id="text1412"><path
         style="stroke-width:1.81515527"
         d="m 46.5625,-149.48047 v 75.533204 h 17.539062 v -5.914062 h -9.927734 v -63.703122 h 9.927734 v -5.91602 z m 184.16602,0 v 64.365236 h 7.65234 v -6.949219 c 1.59948,2.757724 3.61226,4.812778 6.03906,6.164062 2.45438,1.323708 5.37753,1.984375 8.76953,1.984375 5.62576,0 10.19106,-2.233659 13.69336,-6.701172 3.52989,-4.467513 5.29492,-10.340702 5.29492,-17.621092 0,-7.28039 -1.76503,-13.15553 -5.29492,-17.62305 -3.5023,-4.46751 -8.0676,-6.70117 -13.69336,-6.70117 -3.392,0 -6.31515,0.67606 -8.76953,2.02734 -2.4268,1.32371 -4.43958,3.36532 -6.03906,6.12305 v -25.06836 z m 53.15234,0 v 9.63867 h 7.61133 v -9.63867 z m 63.45312,0 v 9.63867 h 7.61133 v -9.63867 z m 171.51758,0 v 64.365236 h 7.65235 v -22.626956 l 23.53711,22.626956 h 9.92773 l -25.60547,-24.654296 24.57227,-21.67578 h -9.72071 l -22.71093,19.98047 v -38.01563 z m 341.27735,0 v 9.63867 h 7.61132 v -9.63867 z m 23.85351,0 v 64.365236 h 7.6543 v -6.949219 c 1.59948,2.757724 3.61226,4.812778 6.03906,6.164062 2.45437,1.323708 5.37753,1.984375 8.76953,1.984375 5.62576,0 10.1891,-2.233659 13.69141,-6.701172 3.52989,-4.467513 5.29492,-10.340702 5.29492,-17.621092 0,-7.28039 -1.76503,-13.15553 -5.29492,-17.62305 -3.50231,-4.46751 -8.06565,-6.70117 -13.69141,-6.70117 -3.392,0 -6.31516,0.67606 -8.76953,2.02734 -2.4268,1.32371 -4.43958,3.36532 -6.03906,6.12305 v -25.06836 z m 153.87698,0 v 5.91602 h 9.8867 v 63.703122 h -9.8867 v 5.914062 h 17.539 v -75.533204 z m -919.80862,4.88086 v 13.1543 h -5.58398 v 5.91601 h 5.58398 v 25.15039 c 0,5.791227 1.11585,9.789918 3.34961,11.996098 2.23375,2.178602 6.28816,3.267578 12.16211,3.267578 h 4.56836 3.25 5.72656 l 13.48633,-18.201176 13.48437,18.201176 h 8.97657 l -17.6211,-23.785156 16.75196,-22.54492 h -8.97657 l -12.28515,16.50586 -12.28516,-16.50586 h -7.25781 -1.71875 -13.95899 v -13.1543 z m 253.30469,0 v 13.1543 h -5.58399 v 5.91601 h 5.58399 v 25.15039 c 0,5.791227 1.11585,9.789918 3.34961,11.996098 2.23376,2.178602 6.28816,3.267578 12.16211,3.267578 h 5.76758 2.05078 35.13867 v -6.080078 h -28.625 l 28.625,-33.300778 v -6.94922 h -35.13867 -1.01563 -14.66211 v -13.1543 z m 463.14844,0 v 13.1543 h -5.58399 v 5.91601 h 5.58399 v 25.15039 c 0,5.791227 1.11781,9.789918 3.35156,11.996098 2.23376,2.178602 6.2862,3.267578 12.16015,3.267578 h 7.81836 v -6.371094 h -7.81836 c -3.17138,0 -5.28019,-0.537769 -6.32812,-1.613281 -1.02036,-1.075512 -1.53125,-3.501212 -1.53125,-7.279301 v -25.15039 h 15.67773 v -5.91601 h -15.67773 v -13.1543 z M 87.337891,-132.5625 c -6.949465,0 -12.478882,2.23366 -16.587891,6.70117 -4.081432,4.43994 -6.123047,10.45337 -6.123047,18.03711 0,7.33555 2.151075,13.15303 6.453125,17.455079 4.329627,4.30205 10.191331,6.453125 17.582031,6.453125 2.950765,0 5.85853,-0.303457 8.726563,-0.910156 2.868028,-0.606699 5.668288,-1.48824 8.398438,-2.646484 v -7.197266 c -2.70257,1.434017 -5.43368,2.509554 -8.191407,3.226563 -2.730147,0.717008 -5.555328,1.074218 -8.478515,1.074218 -5.046635,0 -8.991576,-1.365556 -11.832032,-4.095703 -2.812878,-2.757724 -4.383917,-6.756416 -4.714844,-11.996096 h 34.996098 v -3.72265 c 0,-6.89432 -1.82074,-12.34115 -5.46094,-16.33985 -3.612618,-4.02628 -8.535123,-6.03906 -14.767579,-6.03906 z m 112.843749,0 c -6.94947,0 -12.47888,2.23366 -16.58789,6.70117 -4.08143,4.43994 -6.12305,10.45337 -6.12305,18.03711 0,7.33555 2.15107,13.15303 6.45313,17.455079 4.32962,4.30205 10.18938,6.453125 17.58008,6.453125 2.95076,0 5.86048,-0.303457 8.72851,-0.910156 2.86804,-0.606699 5.66829,-1.48824 8.39844,-2.646484 v -7.197266 c -2.70257,1.434017 -5.43368,2.509554 -8.19141,3.226563 -2.73014,0.717008 -5.55728,1.074218 -8.48047,1.074218 -5.04663,0 -8.98962,-1.365556 -11.83007,-4.095703 -2.81288,-2.757724 -4.38392,-6.756416 -4.71485,-11.996096 h 34.99414 v -3.72265 c 0,-6.89432 -1.81878,-12.34115 -5.45898,-16.33985 -3.61262,-4.02628 -8.53513,-6.03906 -14.76758,-6.03906 z m 252.36328,0 c -2.48194,0 -5.0325,0.27658 -7.65234,0.82812 -2.61984,0.52397 -5.32408,1.32293 -8.10938,2.39844 v 7.03321 c 2.31649,-1.26856 4.7307,-2.22119 7.24024,-2.85547 2.50952,-0.63428 5.08696,-0.95118 7.73437,-0.95118 4.16417,1e-5 7.39078,0.96608 9.67969,2.89649 2.31649,1.90283 3.47461,4.60511 3.47461,8.10742 v 0.74414 h -10.67188 c -6.92188,0 -12.13441,1.32328 -15.63671,3.97071 -3.47474,2.64741 -5.21094,6.57891 -5.21094,11.791011 0,4.467512 1.39243,8.037898 4.17773,10.71289 2.81288,2.647415 6.5907,3.970703 11.33399,3.970703 3.7505,0 6.92141,-0.660667 9.51367,-1.984375 2.59226,-1.351284 4.75677,-3.435168 6.49414,-6.248047 v 7.033204 h 7.61133 v -26.433596 c 0,-7.05977 -1.65362,-12.32605 -4.96289,-15.80078 -3.30927,-3.47473 -8.31435,-5.21289 -15.01563,-5.21289 z m 125.29883,0 c -6.64611,0 -11.85864,2.15107 -15.63672,6.45312 -3.75051,4.30205 -5.62695,10.25978 -5.62695,17.8711 0,7.58374 1.87644,13.539513 5.62695,17.869139 3.77808,4.30205 8.99061,6.453125 15.63672,6.453125 6.61854,0 11.81567,-2.151075 15.59375,-6.453125 3.77809,-4.329626 5.66797,-10.285399 5.66797,-17.869139 0,-7.61132 -1.88988,-13.56905 -5.66797,-17.8711 -3.77808,-4.30205 -8.97521,-6.45312 -15.59375,-6.45312 z m 49.98242,0 c -6.64612,0 -11.85864,2.15107 -15.63672,6.45312 -3.7505,4.30205 -5.625,10.25978 -5.625,17.8711 0,7.58374 1.8745,13.539513 5.625,17.869139 3.77808,4.30205 8.9906,6.453125 15.63672,6.453125 6.61854,0 11.81762,-2.151075 15.59571,-6.453125 3.77807,-4.329626 5.66601,-10.285399 5.66601,-17.869139 0,-7.61132 -1.88793,-13.56905 -5.66601,-17.8711 -3.77809,-4.30205 -8.97717,-6.45312 -15.59571,-6.45312 z m 54.20313,0 c -3.392,0 -6.31516,0.67606 -8.76953,2.02734 -2.4268,1.32371 -4.43959,3.36532 -6.03907,6.12305 v -7.0332 h -7.65429 v 63.951169 h 7.65429 v -24.570312 c 1.59948,2.757724 3.61227,4.812778 6.03907,6.164062 2.45437,1.323708 5.37753,1.984375 8.76953,1.984375 5.62576,0 10.1891,-2.233659 13.6914,-6.701172 3.52989,-4.467513 5.29492,-10.340702 5.29492,-17.621092 0,-7.28039 -1.76503,-13.15553 -5.29492,-17.62305 -3.5023,-4.46751 -8.06564,-6.70117 -13.6914,-6.70117 z m 48.99023,0 c -6.94947,0 -12.47888,2.23366 -16.58789,6.70117 -4.08143,4.43994 -6.12109,10.45337 -6.12109,18.03711 0,7.33555 2.15108,13.15303 6.45312,17.455079 4.32963,4.30205 10.18938,6.453125 17.58008,6.453125 2.95077,0 5.86048,-0.303457 8.72852,-0.910156 2.86803,-0.606699 5.66633,-1.48824 8.39648,-2.646484 v -7.197266 c -2.70257,1.434017 -5.43368,2.509554 -8.19141,3.226563 -2.73014,0.717008 -5.55533,1.074218 -8.47851,1.074218 -5.04664,0 -8.99158,-1.365556 -11.83203,-4.095703 -2.81288,-2.757724 -4.38392,-6.756416 -4.71485,-11.996096 h 34.9961 v -3.72265 c 0,-6.89432 -1.82075,-12.34115 -5.46094,-16.33985 -3.61262,-4.02628 -8.53513,-6.03906 -14.76758,-6.03906 z m 53.79492,0 c -3.66777,0 -6.78492,0.68949 -9.34961,2.06836 -2.56468,1.35128 -4.64661,3.43321 -6.24609,6.24609 v -7.19726 h -7.65234 v 46.330076 h 7.65234 v -24.406246 c 0,-5.23968 1.14469,-9.25181 3.43359,-12.03711 2.31649,-2.81288 5.62568,-4.21875 9.92774,-4.21875 1.2134,0 2.31777,0.1229 3.31054,0.37109 0.92671,0.20037 1.76446,0.54872 2.55469,0.97656 v 2.12696 c 2.31649,-1.26856 4.73071,-2.22119 7.24024,-2.85547 2.50953,-0.63428 5.08696,-0.95118 7.73437,-0.95118 4.16417,1e-5 7.39078,0.96608 9.67969,2.89649 2.31649,1.90283 3.47461,4.60511 3.47461,8.10742 v 0.74414 h -10.67188 c -6.92188,0 -12.13441,1.32328 -15.63672,3.97071 -3.47473,2.64741 -5.21289,6.57891 -5.21289,11.791011 0,4.467512 1.39439,8.037898 4.17969,10.71289 2.81288,2.647415 6.5907,3.970703 11.33399,3.970703 3.7505,0 6.92141,-0.660667 9.51367,-1.984375 2.59226,-1.351284 4.75678,-3.435168 6.49414,-6.248047 v 7.033204 h 7.61133 v -26.433596 c 0,-7.05977 -1.65363,-12.32605 -4.96289,-15.80078 -3.30927,-3.47473 -8.31631,-5.21289 -15.01758,-5.21289 -2.48196,0 -5.03251,0.27658 -7.65235,0.82812 -2.54535,0.50907 -5.17541,1.30039 -7.87695,2.33008 l -0.0137,-2.74414 c -0.77216,-0.1379 -1.47705,-0.23393 -2.11133,-0.28906 -0.63427,-0.0827 -1.21236,-0.125 -1.73633,-0.125 z m 170.27539,0 c -6.64612,0 -11.85863,2.15107 -15.63672,6.45312 -3.7505,4.30205 -5.62695,10.25978 -5.62695,17.8711 0,7.58374 1.87645,13.539513 5.62695,17.869139 3.77809,4.30205 8.9906,6.453125 15.63672,6.453125 6.61854,0 11.81567,-2.151075 15.59375,-6.453125 3.77808,-4.329626 5.66797,-10.285399 5.66797,-17.869139 0,-7.61132 -1.88989,-13.56905 -5.66797,-17.8711 -3.77808,-4.30205 -8.97521,-6.45312 -15.59375,-6.45312 z m 48.28716,0 c -2.482,0 -5.0345,0.27658 -7.65434,0.82812 -2.61984,0.52397 -5.32213,1.32293 -8.10743,2.39844 v 7.03321 c 2.31649,-1.26856 4.73071,-2.22119 7.24024,-2.85547 2.50953,-0.63428 5.08697,-0.95118 7.73433,-0.95118 4.1642,0 7.3909,0.96608 9.6797,2.89649 2.3166,1.90283 3.4746,4.60511 3.4746,8.10742 v 0.74414 h -10.6718 c -6.92195,0 -12.13444,1.32328 -15.63675,3.97071 -3.47473,2.64741 -5.21094,6.57891 -5.21094,11.791011 0,4.467512 1.39243,8.037898 4.17773,10.71289 2.81288,2.647415 6.59071,3.970703 11.33399,3.970703 3.75047,0 6.92137,-0.660667 9.51367,-1.984375 2.5923,-1.351284 4.7567,-3.435168 6.4941,-6.248047 v 7.033204 h 7.6114 v -26.433596 c 0,-7.05977 -1.6537,-12.32605 -4.9629,-15.80078 -3.3093,-3.47473 -8.3144,-5.21289 -15.0156,-5.21289 z m -719.49614,1.11719 v 46.330076 h 7.61133 v -46.330076 z m 20.83594,0 v 6.08008 h 27.58984 l -28.625,33.300777 v 6.949219 h 37.18945 v -6.080078 h -28.625 l 28.625,-33.300778 v -6.94922 z m 42.61718,0 v 46.330076 h 7.61133 v -46.330076 z m 512.79493,0 v 46.330076 h 7.61132 v -46.330076 z m -718.74805,2.30664 14.74414,19.7832 -14.74414,19.861329 v -1.992187 h -7.81836 c -3.17138,0 -5.28019,-0.537769 -6.32812,-1.613281 -1.02037,-1.075512 -1.53126,-3.501212 -1.53126,-7.279301 v -25.15039 h 15.67774 z m 109.94726,2.94726 c 4.02629,0 7.18375,1.59987 9.47266,4.79883 2.31649,3.17138 3.47461,7.55612 3.47461,13.1543 0,5.59818 -1.15812,9.996351 -3.47461,13.195311 -2.28891,3.171383 -5.44637,4.757813 -9.47266,4.757813 -4.02627,0 -7.19718,-1.58643 -9.51367,-4.757813 -2.28891,-3.19896 -3.43359,-7.597131 -3.43359,-13.195311 0,-5.59818 1.14468,-9.98292 3.43359,-13.1543 2.31649,-3.19896 5.48739,-4.79883 9.51367,-4.79883 z m 428.83985,0 c 4.02627,0 7.18374,1.59987 9.47265,4.79883 2.31649,3.17138 3.47461,7.55612 3.47461,13.1543 0,5.59818 -1.15812,9.996351 -3.47461,13.195311 -2.28891,3.171383 -5.44638,4.757813 -9.47265,4.757813 -4.02628,0 -7.19914,-1.58643 -9.51563,-4.757813 -2.28891,-3.19896 -3.43164,-7.597131 -3.43164,-13.195311 0,-5.59818 1.14273,-9.98292 3.43164,-13.1543 2.31649,-3.19896 5.48935,-4.79883 9.51563,-4.79883 z m 224.41601,0 c 4.02628,0 7.18375,1.59987 9.47266,4.79883 2.31649,3.17138 3.47461,7.55612 3.47461,13.1543 0,5.59818 -1.15812,9.996351 -3.47461,13.195311 -2.28891,3.171383 -5.44638,4.757813 -9.47266,4.757813 -4.02627,0 -7.19913,-1.58643 -9.51562,-4.757813 -2.28891,-3.19896 -3.43164,-7.597131 -3.43164,-13.195311 0,-5.59818 1.14273,-9.98292 3.43164,-13.1543 2.31649,-3.19896 5.48935,-4.79883 9.51562,-4.79883 z m -817.164058,0.082 c 3.750505,1e-5 6.756244,1.24071 9.017578,3.72266 2.288912,2.48195 3.462425,5.80654 3.517578,9.9707 l -27.136719,0.041 c 0.386082,-4.3572 1.84766,-7.73555 4.384766,-10.13477 2.564683,-2.39922 5.969902,-3.59961 10.216797,-3.59961 z m 112.843748,0 c 3.75051,1e-5 6.75625,1.24071 9.01758,3.72266 2.28893,2.48195 3.46049,5.80654 3.51563,9.9707 l -27.13477,0.041 c 0.38608,-4.3572 1.84766,-7.73555 4.38477,-10.13477 2.56468,-2.39922 5.9699,-3.59961 10.21679,-3.59961 z m 377.58008,0 c 4.05385,0 7.26507,1.61332 9.63672,4.83985 2.37164,3.19896 3.55859,7.54338 3.55859,13.03125 0,5.51545 -1.18695,9.871351 -3.55859,13.070311 -2.37165,3.19896 -5.58287,4.798828 -9.63672,4.798828 -4.10901,0 -7.34906,-1.584476 -9.7207,-4.755859 -2.34407,-3.19896 -3.51758,-7.57026 -3.51758,-13.11328 0,-5.54303 1.18695,-9.90089 3.55859,-13.07227 2.37165,-3.19896 5.59826,-4.79882 9.67969,-4.79883 z m 49.98242,0 c 4.05386,0 7.26703,1.61332 9.63867,4.83985 2.37165,3.19896 3.55664,7.54338 3.55664,13.03125 0,5.51545 -1.18499,9.871351 -3.55664,13.070311 -2.37164,3.19896 -5.58481,4.798828 -9.63867,4.798828 -4.10901,0 -7.34906,-1.584476 -9.7207,-4.755859 -2.34407,-3.19896 -3.51563,-7.57026 -3.51563,-13.11328 0,-5.54303 1.185,-9.90089 3.55664,-13.07227 2.37164,-3.19896 5.59826,-4.79882 9.67969,-4.79883 z m 103.27539,0 c 3.7505,1e-5 6.75624,1.24071 9.01758,3.72266 2.28893,2.48195 3.46245,5.80654 3.51758,9.9707 L 716.5,-112.375 c 0.38608,-4.3572 1.84766,-7.73555 4.38477,-10.13477 2.56468,-2.39922 5.96989,-3.59961 10.21679,-3.59961 z m 223.98828,0 c 4.05386,1e-5 7.26508,1.61332 9.63672,4.83985 2.37165,3.19896 3.5586,7.54338 3.5586,13.03125 0,5.51545 -1.18695,9.871351 -3.5586,13.070311 -2.37164,3.19896 -5.58286,4.798828 -9.63672,4.798828 -4.10901,0 -7.34906,-1.584476 -9.7207,-4.755859 -2.34407,-3.19896 -3.51758,-7.57026 -3.51758,-13.11328 0,-5.54303 1.18696,-9.90089 3.5586,-13.07227 2.37164,-3.19896 5.59825,-4.79883 9.67968,-4.79883 z m -576.08203,0.58008 h 14.66211 v 0.16407 h 27.58985 l -28.625,33.300777 v 0.578125 h -5.76758 c -3.17138,0 -5.28019,-0.537769 -6.32813,-1.613281 -1.02036,-1.075512 -1.53125,-3.501212 -1.53125,-7.279301 z m 78.33594,17.125 h 7.56836 v 1.69532 c 0,4.9639 -1.28102,8.949154 -3.8457,11.955074 -2.53711,2.978342 -5.91546,4.46875 -10.13477,4.46875 -3.06108,0 -5.48873,-0.787473 -7.28125,-2.359375 -1.76494,-1.59948 -2.64648,-3.750555 -2.64648,-6.453125 0,-3.391994 1.185,-5.790824 3.55664,-7.197264 2.37164,-1.40644 6.63348,-2.10938 12.7832,-2.10938 z m 351.66016,0 h 7.57031 v 1.69532 c 0,4.9639 -1.28298,8.949154 -3.84766,11.955074 -2.5371,2.978342 -5.91544,4.46875 -10.13476,4.46875 -3.06108,0 -5.48678,-0.787473 -7.2793,-2.359375 -1.76494,-1.59948 -2.64844,-3.750555 -2.64844,-6.453125 0,-3.391994 1.18696,-5.790824 3.5586,-7.197264 2.37164,-1.40644 6.63153,-2.10938 12.78125,-2.10938 z m 199.16989,0 h 7.5703 v 1.69532 c 0,4.9639 -1.2809,8.949154 -3.8457,11.955074 -2.537,2.978342 -5.9154,4.46875 -10.1347,4.46875 -3.06111,0 -5.48876,-0.787473 -7.28128,-2.359375 -1.76494,-1.59948 -2.64648,-3.750555 -2.64648,-6.453125 0,-3.391994 1.18499,-5.790824 3.55664,-7.197264 2.37164,-1.40644 6.63152,-2.10938 12.78122,-2.10938 z"
         id="path919"
         inkscape:connector-curvature="0" /></g><g
       id="g1414"
       transform="matrix(1.8151552,0,0,1.8151552,-436.67474,-329.86755)"><g
         id="g1422"
         transform="translate(339.1553,332.8926)" /><g
         id="g1426"
         transform="translate(387.3818,366.0996)" /><g
         id="g1430"
         transform="translate(478.957,332.8994)" /><g
         id="g1434"
         transform="translate(525.7061,317.2314)" /><g
         id="g1438"
         transform="translate(606.1729,332.8955)" /><g
         id="g1442"
         transform="translate(651.4854,366.2334)" /><g
         id="g1446"
         transform="translate(680.1035,375.9492)" /><g
         id="g1450"
         transform="translate(803.1221,309.1982)"><path
           inkscape:connector-curvature="0"
           d="m 0,0 c -1.533,8.472 -2.982,16.388 -4.338,23.694 -0.511,3.079 -1.072,6.25 -1.67,9.527 -0.596,3.217 -1.097,6.24 -1.513,9.104 -0.433,2.871 -0.805,5.529 -1.151,7.979 -0.319,2.27 -0.481,4.114 -0.492,5.725 -0.178,2.054 -0.687,5.45 -1.566,10.384 -0.864,4.828 -1.99,10.349 -3.349,16.408 -1.361,6.071 -2.768,12.355 -4.216,18.856 -1.446,6.488 -2.766,12.468 -3.956,17.923 -1.199,5.481 -2.225,9.978 -3.076,13.503 -0.722,2.933 -1.129,4.163 -1.222,4.643 -0.188,1.428 -1.413,2.056 -2.892,2.056 h -0.769 c -1.387,0 -2.581,-0.503 -2.857,-1.863 -1.875,-9.185 -3.57,-17.126 -5.102,-24.29 -1.536,-7.168 -3.276,-15.02 -5.225,-23.774 -1.962,-8.759 -3.922,-17.279 -5.877,-25.673 -2.037,-8.724 -3.872,-16.29 -5.605,-23.192 -1.756,-6.989 -3.245,-12.495 -4.41,-16.332 l -7.917,-23.73 c -0.299,-0.889 -0.148,-1.521 0.399,-2.282 0.55,-0.76 1.43,-0.864 2.367,-0.864 h 0.764 c 1.262,0 2.379,0.466 2.772,1.664 l 7.646,23.148 c 0.871,2.508 1.839,5.68 2.876,9.6 0.867,3.273 1.798,6.796 2.786,10.65 l 32.965,1.103 c 0.496,-3.64 1.162,-7.728 1.991,-12.166 1.02,-5.444 1.954,-10.626 2.803,-15.528 1.054,-5.928 2.177,-12.66 3.336,-18.263 0.281,-1.353 1.472,-3.208 2.856,-3.208 h 0.771 c 0.862,0 1.683,1.264 2.238,1.927 C -0.08,-2.609 0.153,-0.853 0,0 m -123.0186,66.751 37.386,68.396 c 0.382,0.702 0.461,1.53 0.216,2.291 -0.246,0.764 -0.792,1.39 -1.512,1.738 l -0.771,0.37 c -1.404,0.673 -3.084,0.129 -3.825,-1.236 l -31.774,-58.394 c -0.069,4.17 -0.125,8.337 -0.171,12.511 l -0.253,21.256 c -0.089,6.318 -0.223,12.876 -0.385,20.858 -0.034,1.586 -1.33,2.261 -2.917,2.261 h -0.771 c -0.784,0 -1.535,0.278 -2.086,-0.282 -0.546,-0.559 -0.849,-1.021 -0.831,-1.806 0.173,-8.211 0.296,-15.38 0.383,-21.816 0.086,-6.44 0.217,-13.614 0.388,-21.653 0.171,-8.421 0.254,-16.218 0.254,-23.911 l -0.254,-46.48 c -0.502,-3.268 -0.886,-6.18 -1.137,-8.665 -0.248,-2.425 -0.532,-4.466 -0.872,-6.167 -0.361,-2.218 -0.547,-4.171 -0.547,-5.992 0,-1.595 1.284,-3.773 2.877,-3.796 l 41.64,-1.432 h 0.04 c 0.344,0 0.687,0.94 1.008,1.057 l 0.51,0.632 c 0.809,0.299 1.444,1.161 1.735,1.97 0.294,0.811 0.21,1.819 -0.223,2.562 z m -28.6181,-9.7158 c -2.954,3.441 -6.01,6.743 -9.184,9.916 -1.802,1.644 -3.527,3.307 -5.125,4.948 -1.435,1.464 -2.703,3.151 -3.874,5.188 -4.125,6.171 -6.412,11.947 -6.796,17.174 -0.388,5.27 0.438,10.321 2.421,14.938 2.222,4.797 5.5,9.338 9.742,13.488 4.393,4.299 9.307,8.412 14.608,12.227 0.883,0.633 1.339,1.707 1.185,2.78 -0.154,1.074 -0.891,1.975 -1.917,2.336 l -0.515,0.183 c -0.881,0.319 -1.866,0.179 -2.644,-0.36 -5.723,-3.999 -10.963,-8.308 -15.562,-12.809 -4.763,-4.655 -8.375,-9.797 -10.714,-15.238 -2.575,-5.701 -3.646,-11.808 -3.185,-18.149 0.447,-6.344 2.962,-13.118 7.536,-20.223 1.423,-2.053 3.007,-4.042 4.71,-5.913 1.678,-1.843 3.501,-3.669 5.328,-5.333 2.985,-2.993 5.956,-6.144 8.831,-9.36 2.544,-2.855 4.292,-6.462 5.227,-10.837 1.265,-4.899 1.626,-9.739 1.076,-14.38 -0.546,-4.602 -1.915,-8.727 -3.996,-12.155 -2.171,-3.235 -4.963,-6.036 -8.293,-8.32 -3.298,-2.262 -7.492,-3.803 -12.469,-4.584 -1.059,-0.168 -1.942,-0.904 -2.299,-1.917 -0.355,-1.011 -0.124,-2.14 0.599,-2.932 l 0.504,-0.553 c 0.556,-0.612 1.342,-0.95 2.154,-0.95 0.15,0 0.302,0.011 0.456,0.036 5.859,0.924 10.895,2.78 14.962,5.516 4.095,2.745 7.405,6.255 9.836,10.423 2.577,4.381 4.209,9.343 4.85,14.75 0.63,5.318 0.317,10.961 -0.934,16.79 -1.122,5.108 -3.316,9.589 -6.518,13.32 m -45.3125,-33.3379 c -0.513,3.076 -1.072,6.25 -1.67,9.521 -0.589,3.212 -1.097,6.238 -1.512,9.112 -0.436,2.866 -0.812,5.52 -1.152,7.971 -0.319,2.291 -0.481,4.136 -0.492,5.737 -0.189,2.128 -0.718,5.617 -1.57,10.371 -0.849,4.792 -1.943,10.162 -3.341,16.414 -1.365,6.068 -2.772,12.353 -4.216,18.855 -1.45,6.487 -2.769,12.466 -3.957,17.918 -1.196,5.488 -2.224,9.985 -3.079,13.5 -0.718,2.94 -1.129,4.169 -1.222,4.654 -0.19,1.426 -1.413,2.051 -2.892,2.051 h -0.766 c -1.388,0 -2.581,-0.499 -2.858,-1.858 -1.877,-9.189 -3.575,-17.134 -5.104,-24.294 -1.535,-7.168 -3.278,-15.017 -5.231,-23.776 -1.959,-8.757 -3.914,-17.275 -5.873,-25.673 -1.955,-8.393 -3.84,-16.174 -5.603,-23.191 -1.735,-6.913 -3.228,-12.422 -4.407,-16.332 l -7.925,-23.729 c -0.299,-0.89 -0.149,-1.519 0.398,-2.282 0.55,-0.76 1.431,-0.865 2.368,-0.865 h 0.766 c 1.262,0 2.378,0.466 2.773,1.665 l 7.648,23.146 c 0.874,2.51 1.814,5.59 2.876,9.602 0.867,3.275 1.792,6.799 2.786,10.65 l 32.965,1.103 c 0.498,-3.674 1.168,-7.762 1.993,-12.166 1.016,-5.444 1.953,-10.626 2.801,-15.528 1.043,-5.862 2.165,-12.595 3.339,-18.263 0.282,-1.353 1.472,-3.209 2.857,-3.209 h 0.767 c 0.865,0 1.683,1.265 2.238,1.929 0.553,0.662 0.787,1.98 0.633,2.829 -1.536,8.471 -2.983,16.828 -4.338,24.138 M -277.416,8.0332 c -1.694,3.47 -3.6,7.525 -5.714,12.166 -2.07,4.518 -4.253,9.506 -6.489,14.815 -2.214,5.28 -4.296,10.222 -6.261,14.825 -1.957,4.595 -3.612,8.511 -4.974,11.762 -0.522,1.245 -0.969,2.308 -1.345,3.191 0.059,0.025 0.12,0.051 0.182,0.076 1.704,0.727 3.629,1.936 5.889,3.696 2.142,1.672 4.537,3.865 7.32,6.702 2.755,2.824 5.661,6.489 8.612,10.863 l 1.031,1.486 c 0.385,0.558 0.772,1.189 1.206,1.968 2.426,4.71 3.611,9.664 3.518,14.73 -0.098,5.109 -1.485,9.903 -4.063,14.13 -2.384,4.364 -5.808,8.369 -10.169,11.902 -4.339,3.518 -9.814,6.355 -16.18,8.394 -0.727,0.26 -1.412,0.491 -2.054,0.69 -0.613,0.185 -1.348,0.407 -2.22,0.655 -0.262,0.077 -0.786,0.114 -1.057,0.114 -1.612,0 -2.917,-1.305 -2.917,-2.917 0,-0.037 0,-0.259 0.003,-0.296 0.174,-4.427 0.339,-8.424 0.513,-11.978 0.162,-3.567 0.382,-7.714 0.635,-12.441 0.251,-4.706 0.467,-9.62 0.641,-14.747 0.169,-5.171 0.339,-10.43 0.597,-15.775 0.254,-5.324 0.59,-10.37 0.59,-15.039 v -0.455 c 0,-5.775 0.303,-10.885 0.303,-15.184 0,-4.233 -0.142,-7.426 -0.48,-9.68 -0.347,-3.937 -0.679,-8.215 -1.016,-12.821 -0.344,-4.59 -0.674,-8.905 -1.016,-12.985 -0.334,-4.649 -0.591,-9.449 -0.77,-14.263 -0.032,-0.792 0.268,-1.457 0.819,-2.025 0.547,-0.573 1.307,-0.79 2.098,-0.79 h 0.767 c 1.569,0 2.856,1.135 2.914,2.706 0.168,4.609 0.424,9.288 0.76,13.975 0.342,4.061 0.68,8.365 1.021,12.969 0.338,4.506 0.763,8.745 1.278,12.759 0.16,1.983 0.249,4.849 0.259,8.533 0.858,-1.984 1.764,-4.072 2.721,-6.26 1.955,-4.476 3.994,-9.167 6.125,-14.068 2.134,-4.915 4.133,-9.491 6.013,-13.727 1.868,-4.218 3.607,-7.945 5.165,-11.071 1.63,-3.258 2.751,-5.3 3.526,-6.425 0.553,-0.801 1.459,-1.259 2.403,-1.259 0.221,0 0.449,0.026 0.671,0.08 l 0.77,0.182 c 0.939,0.222 1.708,0.895 2.054,1.797 0.343,0.903 0.218,1.918 -0.333,2.71 -0.403,0.575 -1.309,2.139 -3.346,6.33 m -46.7491,15.668 c -0.515,3.076 -1.074,6.246 -1.668,9.517 -0.591,3.215 -1.098,6.243 -1.516,9.107 -0.434,2.871 -0.806,5.529 -1.152,7.976 -0.315,2.261 -0.475,4.108 -0.486,5.743 -0.186,2.059 -0.715,5.549 -1.57,10.372 -0.88,4.91 -2.008,10.429 -3.35,16.405 -1.362,6.068 -2.769,12.355 -4.213,18.858 -1.449,6.489 -2.769,12.465 -3.96,17.918 -1.196,5.484 -2.219,9.981 -3.073,13.505 -0.724,2.934 -1.131,4.163 -1.225,4.644 -0.188,1.428 -1.414,2.056 -2.891,2.056 h -0.767 c -1.387,0 -2.58,-0.499 -2.858,-1.859 -1.876,-9.189 -3.577,-17.134 -5.101,-24.294 -1.535,-7.168 -3.281,-15.02 -5.23,-23.776 -1.961,-8.761 -3.918,-17.277 -5.869,-25.671 -1.963,-8.381 -3.834,-16.096 -5.608,-23.189 -1.77,-7.025 -3.26,-12.536 -4.407,-16.335 l -7.922,-23.73 c -0.3,-0.89 -0.149,-1.518 0.398,-2.282 0.55,-0.76 1.43,-0.864 2.367,-0.864 h 0.764 c 1.263,0 2.379,0.465 2.773,1.664 l 7.645,23.144 c 0.866,2.475 1.806,5.559 2.876,9.604 0.867,3.275 1.792,6.8 2.787,10.65 l 32.967,1.103 c 0.487,-3.626 1.143,-7.642 1.988,-12.166 1.02,-5.447 1.951,-10.626 2.804,-15.528 1.025,-5.767 2.147,-12.494 3.338,-18.26 0.28,-1.356 1.472,-3.211 2.857,-3.211 h 0.77 c 0.863,0 1.682,1.264 2.239,1.928 0.552,0.662 0.785,1.98 0.632,2.829 -1.535,8.471 -2.985,16.829 -4.339,24.142 m -91.5752,33.2002 c -3.843,3.584 -7.577,6.592 -11.104,8.944 -1.338,0.889 -2.459,1.63 -3.381,2.234 0.71,0.743 1.607,1.692 2.743,2.909 2.866,3.059 5.94,6.76 9.138,10.998 3.203,4.239 6.193,8.766 8.894,13.463 2.82,4.913 4.529,9.577 5.082,13.833 0.55,3.936 0.59,7.586 0.125,10.833 -0.458,3.265 -1.265,6.171 -2.489,8.813 -1.737,3.189 -3.874,5.712 -6.359,7.501 -2.401,1.73 -4.828,2.645 -7.215,3.118 -0.923,0.298 -1.857,0.254 -2.786,0.254 h -2.304 c -1.752,0 -3.422,0.132 -4.974,0.005 -1.553,-0.134 -3.063,-0.231 -4.573,-0.505 -3.571,-0.759 -6.656,-1.367 -6.656,-4.463 0,-9.062 -0.038,-17.03 -0.122,-23.94 -0.087,-6.928 -0.218,-14.421 -0.383,-22.505 -0.173,-8.088 -0.344,-15.781 -0.513,-23.074 -0.173,-7.289 -0.347,-13.569 -0.509,-18.832 -0.223,-6.896 -0.408,-8.755 -0.496,-9.362 -0.177,-1.745 -0.39,-4.626 -0.65,-8.666 -0.253,-3.969 -0.385,-8.033 -0.721,-12.118 -0.51,-4.933 -1.129,-10.297 -1.129,-16.12 v -0.552 c 0,-1.088 0.442,-2.088 1.408,-2.589 0.424,-0.22 0.804,-0.327 1.263,-0.327 0.52,0 0.993,0.138 1.452,0.412 0.849,0.259 2.389,0.806 5.608,1.965 3.859,1.391 8.245,3.436 13.055,6.08 4.848,2.669 9.419,5.962 13.595,9.794 4.488,4.135 7.153,8.989 7.937,14.504 0.592,5.182 -0.67,10.276 -3.755,15.141 -2.831,4.472 -6.258,8.595 -10.181,12.252 m -48.2265,-33.207 c -0.511,3.079 -1.066,6.25 -1.664,9.528 -0.599,3.215 -1.1,6.239 -1.516,9.103 -0.432,2.867 -0.808,5.525 -1.148,7.98 -0.321,2.263 -0.484,4.106 -0.495,5.733 -0.186,2.095 -0.715,5.587 -1.57,10.371 -0.861,4.832 -1.986,10.352 -3.347,16.409 l -4.216,18.858 c -1.444,6.489 -2.76,12.468 -3.954,17.92 -1.196,5.485 -2.226,9.982 -3.079,13.506 -0.721,2.932 -1.125,4.159 -1.22,4.642 -0.187,1.429 -1.41,2.057 -2.892,2.057 h -0.771 c -1.387,0 -2.581,-0.499 -2.857,-1.858 -1.877,-9.189 -3.573,-17.134 -5.099,-24.294 -1.535,-7.168 -3.279,-15.017 -5.23,-23.776 -1.961,-8.761 -3.918,-17.278 -5.871,-25.671 -1.984,-8.498 -3.872,-16.281 -5.609,-23.193 -1.75,-6.967 -3.24,-12.477 -4.407,-16.332 l -7.922,-23.729 c -0.299,-0.89 -0.148,-1.519 0.399,-2.282 0.549,-0.76 1.43,-0.865 2.366,-0.865 h 0.763 c 1.26,0 2.379,0.466 2.774,1.664 l 7.657,23.153 c 0.865,2.506 1.833,5.676 2.873,9.597 0.863,3.274 1.79,6.798 2.778,10.649 l 32.97,1.102 c 0.504,-3.716 1.171,-7.804 1.994,-12.168 1.02,-5.444 1.951,-10.624 2.8,-15.525 1.032,-5.801 2.153,-12.529 3.333,-18.261 0.279,-1.355 1.473,-3.211 2.857,-3.211 h 0.773 c 0.865,0 1.682,1.265 2.238,1.929 0.556,0.662 0.786,1.98 0.633,2.831 -1.539,8.469 -2.988,16.826 -4.341,24.133"
           style="fill:#1d1d1b;fill-opacity:1;fill-rule:nonzero;stroke:none"
           id="path1452" /></g></g></g></svg>